<svg width="40" height="40" viewBox="0 0 40 40" fill="none" xmlns="http://www.w3.org/2000/svg">
<mask id="mask0_53_1181" style="mask-type:alpha" maskUnits="userSpaceOnUse" x="8" y="6" width="24" height="24">
<rect x="8" y="6" width="24" height="24" fill="#D9D9D9"/>
</mask>
<g mask="url(#mask0_53_1181)">
<path d="M27 14V12H25V10H27V8H29V10H31V12H29V14H27ZM11 28C10.45 28 9.97933 27.8043 9.588 27.413C9.196 27.021 9 26.55 9 26V14C9 13.45 9.196 12.9793 9.588 12.588C9.97933 12.196 10.45 12 11 12H14.15L16 10H22V12H16.875L15.05 14H11V26H27V17H29V26C29 26.55 28.8043 27.021 28.413 27.413C28.021 27.8043 27.55 28 27 28H11ZM19 24.5C20.25 24.5 21.3127 24.0627 22.188 23.188C23.0627 22.3127 23.5 21.25 23.5 20C23.5 18.75 23.0627 17.6873 22.188 16.812C21.3127 15.9373 20.25 15.5 19 15.5C17.75 15.5 16.6873 15.9373 15.812 16.812C14.9373 17.6873 14.5 18.75 14.5 20C14.5 21.25 14.9373 22.3127 15.812 23.188C16.6873 24.0627 17.75 24.5 19 24.5ZM19 22.5C18.3 22.5 17.7083 22.2583 17.225 21.775C16.7417 21.2917 16.5 20.7 16.5 20C16.5 19.3 16.7417 18.7083 17.225 18.225C17.7083 17.7417 18.3 17.5 19 17.5C19.7 17.5 20.2917 17.7417 20.775 18.225C21.2583 18.7083 21.5 19.3 21.5 20C21.5 20.7 21.2583 21.2917 20.775 21.775C20.2917 22.2583 19.7 22.5 19 22.5Z" fill="#1C1B1F"/>
</g>
</svg>
