<svg width="64" height="64" viewBox="0 0 64 64" fill="none" xmlns="http://www.w3.org/2000/svg">
<circle cx="32" cy="32" r="32" fill="#DE162C"/>
<path fill-rule="evenodd" clip-rule="evenodd" d="M35.68 33.6933L43.32 41.3333L41.3333 43.32L33.6933 35.68C32.2667 36.7067 30.5467 37.3333 28.6667 37.3333C23.88 37.3333 20 33.4533 20 28.6667C20 23.88 23.88 20 28.6667 20C33.4533 20 37.3333 23.88 37.3333 28.6667C37.3333 30.5467 36.7067 32.2667 35.68 33.6933ZM28.6667 22.6667C25.3467 22.6667 22.6667 25.3467 22.6667 28.6667C22.6667 31.9867 25.3467 34.6667 28.6667 34.6667C31.9867 34.6667 34.6667 31.9867 34.6667 28.6667C34.6667 25.3467 31.9867 22.6667 28.6667 22.6667Z" fill="#FBF9F5"/>
</svg>
